# xmcd
#
# Track frame offsets: 
#        150
#        15960
#        31013
#        48933
#        68138
#        86404
#        108423
#
# Disc length: 1665 seconds
#
# Revision: 3
# Processed by: cddbd v1.5.2PL0 Copyright (c) Steve Scherf et al.
# Submitted via: ExactAudioCopy v1.0b3
#
DISCID=44067f07
DTITLE=岸田教団&The明星ロケッツ - LITERAL WORLD
DYEAR=2008
DGENRE=ロック
TTITLE0=コノハ
TTITLE1=girl of nothing
TTITLE2=literal world
TTITLE3=夏空
TTITLE4=hollow word
TTITLE5=最後の夜空
TTITLE6=暁を映して
EXTD=
EXTT0=
EXTT1=
EXTT2=
EXTT3=
EXTT4=
EXTT5=
EXTT6=
PLAYORDER=
